<mxfile host="app.diagrams.net" agent="Mozilla/5.0 (Windows NT 10.0; Win64; x64; rv:133.0) Gecko/20100101 Firefox/133.0" version="25.0.3">
  <diagram name="Page-1" id="2cc2dc42-3aac-f2a9-1cec-7a8b7cbee084">
    <mxGraphModel dx="1551" dy="839" grid="1" gridSize="10" guides="1" tooltips="1" connect="1" arrows="1" fold="1" page="1" pageScale="1" pageWidth="1100" pageHeight="850" background="#ffffff" math="0" shadow="0">
      <root>
        <mxCell id="0" />
        <mxCell id="1" parent="0" />
        <mxCell id="7026571954dc6520-1" value="" style="strokeWidth=1;shadow=0;dashed=0;align=center;html=1;shape=mxgraph.mockup.containers.browserWindow;rSize=0;strokeColor=#666666;mainText=,;recursiveResize=0;rounded=0;labelBackgroundColor=none;fontFamily=Verdana;fontSize=12" parent="1" vertex="1">
          <mxGeometry x="29" y="20" width="1050" height="820" as="geometry" />
        </mxCell>
        <mxCell id="7026571954dc6520-2" value="Яндекс Янг" style="strokeWidth=1;shadow=0;dashed=0;align=center;html=1;shape=mxgraph.mockup.containers.anchor;fontSize=17;fontColor=#666666;align=left;" parent="7026571954dc6520-1" vertex="1">
          <mxGeometry x="60" y="12" width="110" height="26" as="geometry" />
        </mxCell>
        <mxCell id="7026571954dc6520-3" value="https://yang.yandex-team.ru" style="strokeWidth=1;shadow=0;dashed=0;align=center;html=1;shape=mxgraph.mockup.containers.anchor;rSize=0;fontSize=17;fontColor=#666666;align=left;" parent="7026571954dc6520-1" vertex="1">
          <mxGeometry x="130" y="60" width="250" height="26" as="geometry" />
        </mxCell>
        <mxCell id="7026571954dc6520-4" value="&lt;font style=&quot;font-size: 18px;&quot;&gt;ЧЗ - Модерация маркировки &quot;Честный Знак&quot;&lt;br&gt;&lt;/font&gt;" style="text;html=1;points=[];align=left;verticalAlign=top;spacingTop=-4;fontSize=30;fontFamily=Verdana;fontColor=#EA6B66;" parent="7026571954dc6520-1" vertex="1">
          <mxGeometry x="30" y="180" width="420" height="50" as="geometry" />
        </mxCell>
        <mxCell id="7026571954dc6520-11" value="Тикетов обработано за сегодня: 0" style="text;html=1;points=[];align=left;verticalAlign=top;spacingTop=-4;fontSize=8;fontFamily=Verdana;whiteSpace=wrap;fontColor=#EA6B66;" parent="7026571954dc6520-1" vertex="1">
          <mxGeometry x="870" y="197.5" width="170" height="15" as="geometry" />
        </mxCell>
        <mxCell id="TLFT4dumJQ2oOuWDpeYR-1" value="Задания" style="text;html=1;align=center;verticalAlign=middle;whiteSpace=wrap;rounded=0;fontColor=#999999;fontSize=8;" parent="7026571954dc6520-1" vertex="1">
          <mxGeometry y="110" width="70" height="30" as="geometry" />
        </mxCell>
        <mxCell id="TLFT4dumJQ2oOuWDpeYR-52" value="В работе" style="text;html=1;align=center;verticalAlign=middle;whiteSpace=wrap;rounded=0;fontColor=#999999;fontSize=8;" parent="7026571954dc6520-1" vertex="1">
          <mxGeometry x="70" y="110" width="70" height="30" as="geometry" />
        </mxCell>
        <mxCell id="TLFT4dumJQ2oOuWDpeYR-53" value="Сообщения" style="text;html=1;align=center;verticalAlign=middle;whiteSpace=wrap;rounded=0;fontColor=#999999;fontSize=8;" parent="7026571954dc6520-1" vertex="1">
          <mxGeometry x="140" y="110" width="70" height="30" as="geometry" />
        </mxCell>
        <mxCell id="TLFT4dumJQ2oOuWDpeYR-54" value="50:38" style="text;html=1;align=center;verticalAlign=middle;whiteSpace=wrap;rounded=0;fontStyle=1;fontColor=#EA6B66;" parent="7026571954dc6520-1" vertex="1">
          <mxGeometry x="490" y="110" width="60" height="30" as="geometry" />
        </mxCell>
        <mxCell id="TLFT4dumJQ2oOuWDpeYR-55" value="&lt;font color=&quot;#999999&quot; style=&quot;font-size: 8px;&quot;&gt;Поддержка контента (Янг + Трекер)&lt;/font&gt;" style="text;html=1;align=center;verticalAlign=middle;whiteSpace=wrap;rounded=0;" parent="7026571954dc6520-1" vertex="1">
          <mxGeometry x="410" y="120" width="220" height="30" as="geometry" />
        </mxCell>
        <mxCell id="tMn4PlatXZS9xMkexgPD-1" value="" style="rounded=1;whiteSpace=wrap;html=1;" vertex="1" parent="7026571954dc6520-1">
          <mxGeometry x="20" y="230" width="1010" height="50" as="geometry" />
        </mxCell>
        <mxCell id="tMn4PlatXZS9xMkexgPD-5" value="" style="group;verticalAlign=middle;" vertex="1" connectable="0" parent="7026571954dc6520-1">
          <mxGeometry x="41" y="243.75" width="159" height="22.5" as="geometry" />
        </mxCell>
        <mxCell id="tMn4PlatXZS9xMkexgPD-3" value="" style="rounded=1;whiteSpace=wrap;html=1;arcSize=28;" vertex="1" parent="tMn4PlatXZS9xMkexgPD-5">
          <mxGeometry width="159" height="22.5" as="geometry" />
        </mxCell>
        <mxCell id="tMn4PlatXZS9xMkexgPD-4" value="Передать" style="text;html=1;align=center;verticalAlign=middle;whiteSpace=wrap;rounded=0;fontColor=#EA6B66;" vertex="1" parent="tMn4PlatXZS9xMkexgPD-5">
          <mxGeometry x="9" y="1.25" width="140" height="18.75" as="geometry" />
        </mxCell>
        <mxCell id="tMn4PlatXZS9xMkexgPD-12" value="" style="group;verticalAlign=middle;" vertex="1" connectable="0" parent="7026571954dc6520-1">
          <mxGeometry x="210" y="243.75" width="159" height="22.5" as="geometry" />
        </mxCell>
        <mxCell id="tMn4PlatXZS9xMkexgPD-13" value="" style="rounded=1;whiteSpace=wrap;html=1;arcSize=28;" vertex="1" parent="tMn4PlatXZS9xMkexgPD-12">
          <mxGeometry width="159" height="22.5" as="geometry" />
        </mxCell>
        <mxCell id="tMn4PlatXZS9xMkexgPD-14" value="Эскалировать" style="text;html=1;align=center;verticalAlign=middle;whiteSpace=wrap;rounded=0;fontColor=#EA6B66;" vertex="1" parent="tMn4PlatXZS9xMkexgPD-12">
          <mxGeometry x="9" y="1.25" width="140" height="18.75" as="geometry" />
        </mxCell>
        <mxCell id="tMn4PlatXZS9xMkexgPD-15" value="" style="group;verticalAlign=middle;" vertex="1" connectable="0" parent="7026571954dc6520-1">
          <mxGeometry x="380" y="243.75" width="159" height="22.5" as="geometry" />
        </mxCell>
        <mxCell id="tMn4PlatXZS9xMkexgPD-16" value="" style="rounded=1;whiteSpace=wrap;html=1;arcSize=28;" vertex="1" parent="tMn4PlatXZS9xMkexgPD-15">
          <mxGeometry width="159" height="22.5" as="geometry" />
        </mxCell>
        <mxCell id="tMn4PlatXZS9xMkexgPD-17" value="Завершить" style="text;html=1;align=center;verticalAlign=middle;whiteSpace=wrap;rounded=0;fontColor=#EA6B66;" vertex="1" parent="tMn4PlatXZS9xMkexgPD-15">
          <mxGeometry x="9" y="1.25" width="140" height="18.75" as="geometry" />
        </mxCell>
        <mxCell id="tMn4PlatXZS9xMkexgPD-50" value="" style="rounded=1;whiteSpace=wrap;html=1;arcSize=2;" vertex="1" parent="7026571954dc6520-1">
          <mxGeometry x="20" y="350" width="1010" height="460" as="geometry" />
        </mxCell>
        <mxCell id="tMn4PlatXZS9xMkexgPD-52" value="Кастомные поля" style="text;html=1;align=left;verticalAlign=top;whiteSpace=wrap;rounded=0;fontSize=14;fontColor=#EA6B66;" vertex="1" parent="7026571954dc6520-1">
          <mxGeometry x="41" y="370" width="500" height="30" as="geometry" />
        </mxCell>
        <mxCell id="tMn4PlatXZS9xMkexgPD-18" value="" style="rounded=1;whiteSpace=wrap;html=1;" vertex="1" parent="1">
          <mxGeometry x="49" y="310" width="1010" height="50" as="geometry" />
        </mxCell>
        <mxCell id="tMn4PlatXZS9xMkexgPD-49" value="&lt;div align=&quot;left&quot;&gt;MMDM-000000 ЧЗ - Модерация маркировки &quot;Честный Знак&quot;&lt;br&gt;&lt;/div&gt;" style="text;html=1;align=left;verticalAlign=top;whiteSpace=wrap;rounded=0;fontSize=14;fontColor=#EA6B66;" vertex="1" parent="1">
          <mxGeometry x="70" y="320" width="500" height="30" as="geometry" />
        </mxCell>
      </root>
    </mxGraphModel>
  </diagram>
</mxfile>
